<?xml version="1.0"?>
<svg width="106.00782394174519" height="104.68749999999999" xmlns="http://www.w3.org/2000/svg" xmlns:svg="http://www.w3.org/2000/svg" class="css-1j8o68f" version="1.1">

 <g class="layer">
  <title>Layer 1</title>
  <g fill="#ff4a3f" id="SvgjsG2685" transform="matrix(0.982059 0 0 0.982059 -0.0545605 0)">
   <g id="g17">
    <path d="m19.8,15.3l0.5,0l-0.4,-0.2l-0.1,0.2zm0.5,0.1zm0.8,-0.7c0,0.1 0,0.1 0.1,0.1l0.4,-0.3c-0.2,-0.1 -0.3,-0.1 -0.5,0.2zm0.4,-0.2zm-4.1,2.3zm-0.2,0.6l0.3,-0.2c0.1,-0.1 0.1,-0.2 0.1,-0.2l-0.2,0l-0.2,0.4c-0.1,-0.1 -0.1,0 0,0zm2.2,-2.9l-0.1,0l-0.2,0.2l0.3,0l0,-0.2zm-2.1,2.4l0.6,-0.5c0.1,-0.1 0.1,-0.2 0.1,-0.3l-0.3,0l-1.2,1.1l-0.2,0.4l0.7,-0.6l0.3,-0.1zm-1.1,0.8z" fill="#000000" id="path3"/>
    <path d="m9.7,25l0,-0.2a1.7,1.7 0 0 1 0.7,-1.1l0.9,-0.6l0.5,-0.6l0.7,-0.7l0.4,-0.4l0.4,-0.3a1.9,1.9 0 0 0 0.8,-0.9l0.4,-0.5a5.9,5.9 0 0 0 1,-1.3l0.2,-0.3l0.3,-0.2l-0.2,-0.3l0.4,-0.5c0.8,-0.6 1.4,-1.4 2.2,-2l0.3,-0.3a1.4,1.4 0 0 1 0.5,-0.6l0.8,-0.4l0.4,0a1.4,1.4 0 0 0 0.7,-0.6l0,-0.2a3.5,3.5 0 0 1 1.3,-1.4l0.8,-0.5l0.2,-0.2l0.4,-0.4l1,-0.5l0.2,0l-1.1,0.4l-1.4,1c-0.6,0.5 -1.4,0.6 -1.8,1.4l0.3,0c-0.7,0.2 -1.4,0.5 -1.7,1.2s-0.8,0.6 -1.2,0.9a0.4,0.4 0 0 0 -0.3,0.4c-0.8,-0.1 -1.1,0.5 -1.5,0.9l0,0.8a3.9,3.9 0 0 0 -1.6,1.4c-1.6,0.1 -1.6,2.1 -3,2.5l-0.1,0a0.2,0.2 0 0 0 0,0.2c-0.3,0 -0.5,0.2 -0.4,0.5l-0.2,0.5c-0.7,0.4 -0.6,1.1 -1,1.7c-0.8,0.5 -1.1,1.5 -1.7,2.2l0.3,0.5l0.2,-0.2a11.6,11.6 0 0 1 0.9,-1.3zm44.2,-21.7l0.6,0.2l0.2,0a2.2,2.2 0 0 0 1.4,0.2a4.1,4.1 0 0 1 1.9,0.1l1.2,0a1.4,1.4 0 0 1 1.2,0.3a0.1,0.1 0 0 1 0,0.1l-0.4,0a0.1,0.1 0 0 0 0,0.1l0.7,0a1.8,1.8 0 0 1 1.3,0c0.2,0 0.1,0.1 0.2,0.2l0.5,0.2l-0.2,0c-0.2,-0.4 -0.5,-0.4 -0.8,-0.4a9.7,9.7 0 0 0 -4.3,-0.9l-0.8,0a9.8,9.8 0 0 0 -3.6,-0.4l0.2,0l0.7,0.3zm7.3,3.1zm-10.9,-1.7zm10.9,1.7l0.2,0l-0.2,0zm-42.2,8.3zm32.1,-10zm17.6,2.2a0.9,0.9 0 0 0 1,0.2l0.6,0a3.1,3.1 0 0 0 -1.8,-0.7l-0.7,-0.2l0.5,0.3l0.4,0.4zm-3.4,-1.3c0,0.1 0.1,0.2 0.2,0.3l0.2,0l0.5,-0.3a4.2,4.2 0 0 0 -1.7,-0.6l0.7,0.4l0.1,0.2zm7.4,2.7l0.8,0.5c-0.2,-0.3 -0.4,-0.5 -0.8,-0.5z" fill="#000000" id="path5"/>
    <path d="m99,76.1l0.6,-1.6l0.6,-1.5c0.2,-0.5 0.6,-1.8 0.8,-2.6a1.7,1.7 0 0 1 0.3,-0.7l0.1,0l0,-1.1c0.5,-0.1 0.4,-0.6 0.5,-0.9l0.8,-4.7a12.7,12.7 0 0 0 0,-6.2a1.9,1.9 0 0 0 -0.5,-1.6l0,-4.3c-0.3,-0.9 0.3,-1.9 -0.4,-2.7l-0.8,-3.2a0.4,0.4 0 0 0 0,-0.2l-0.2,-0.6a0.5,0.5 0 0 1 0,-0.4l0.1,0c0.3,0 0.3,-0.5 0.3,-0.9a3,3 0 0 0 -0.4,-1.1l-0.3,-0.4a1.1,1.1 0 0 1 -0.2,-0.7a6.7,6.7 0 0 0 -0.2,-2l0,-0.6c-0.2,-0.7 -0.4,-1.5 -0.6,-2.2l-0.2,-0.5a2.5,2.5 0 0 1 -0.4,-1.1a2.5,2.5 0 0 0 -0.3,-0.8l-0.6,-1a0.8,0.8 0 0 0 -0.6,-0.2l-0.1,0l0,-0.3l-0.2,0l0,-0.8l-0.1,0l0,-0.2a0.4,0.4 0 0 0 0,-0.1l0,-0.2c0.1,-0.2 0.1,-0.3 -0.1,-0.5a1.8,1.8 0 0 1 -0.4,-0.6l-0.2,-0.6a2.9,2.9 0 0 0 -0.7,-1.2a2.2,2.2 0 0 1 -0.5,-0.7l-0.7,-1.6a4.3,4.3 0 0 0 -0.6,-1l-0.6,-0.8a2.4,2.4 0 0 1 -0.4,-0.8l-0.2,-0.3a0.6,0.6 0 0 1 -0.1,-0.5a0.5,0.5 0 0 0 -0.2,-0.4l-0.4,-0.3l0,0.2c0.1,0.2 0,0.3 -0.1,0.3l-0.2,0l0.3,1l0.3,0.5l0.7,0.9l-0.1,0l-0.2,-0.2l-0.2,-0.2a1.3,1.3 0 0 0 -1.2,-1.1l0,-0.7c-0.3,-1.2 -1.6,-1.3 -2.2,-2.1a1.5,1.5 0 0 0 -1.1,-0.9l-0.8,-0.9a11.3,11.3 0 0 0 -3.1,-3l-0.8,-0.6l-0.4,-0.3c-0.7,-0.7 -1,-1.8 -2.2,-1.8l-0.8,-0.5l-0.9,-0.7a2.2,2.2 0 0 0 -1.8,-1.3a5.1,5.1 0 0 0 -2.3,-1.2l0.2,0.2l0.5,0.4l1.3,0.7a8.5,8.5 0 0 1 2.1,1.6a6.8,6.8 0 0 0 1.5,1.1l0.6,0.5c0.1,0.1 0.2,0.2 0.1,0.3l-0.1,0l-0.9,-0.3a5.6,5.6 0 0 1 -2,-0.8l-1.2,-0.6l-1.3,-0.7l-0.2,0c-0.3,-0.1 -0.4,-0.4 -0.8,-0.5l-0.8,-0.2l-2.5,-0.5a2.6,2.6 0 0 1 -0.9,-0.7a1.7,1.7 0 0 1 -0.9,-0.3l-1,-0.4a18.1,18.1 0 0 1 -2.8,-0.8l-0.6,-0.2l-1,-0.3l-0.5,0l-0.2,-0.3l0,-0.1l-1.6,0l-0.6,-0.5l-0.4,0.2l-0.4,0.2l-0.2,0l-0.9,-0.5c-0.6,0.6 -1.1,-0.2 -1.6,-0.1l-1,-0.3a1.2,1.2 0 0 1 -1.2,0l-1.2,0a0.6,0.6 0 0 1 -0.5,-0.6l0.3,-0.2l0.6,0a0.7,0.7 0 0 1 0.1,0.3c0,0.2 0.2,0.2 0.5,0.2l0.2,0l-0.4,-0.6a1.1,1.1 0 0 0 -1,-0.2l-1,0.3l-0.1,0c0.3,0.2 0.2,0.3 0.2,0.5l-1.6,0l-0.4,-0.2l-0.8,-0.4l-0.1,0l-0.7,-0.2l-2.3,0l0.4,-0.2l0.8,-0.2l0.3,0l1.7,-0.3l1.1,-0.2l0.6,-0.2l-1.1,0a8.4,8.4 0 0 0 -3.4,0l-1.3,0l-3.4,-0.1c-1.4,0.1 -2.8,0 -3.9,1.2c-2.5,-0.4 -4.7,0.7 -6.9,1.8l-2.2,0.9a6.7,6.7 0 0 0 -3.7,1.8l0.3,0l0.5,-0.3l0.8,-0.5l1.3,-0.6l1,-0.2a6,6 0 0 1 2,-0.9l0.9,-0.3l0.2,0c0.1,0.2 0.5,0 0.7,0l0.2,0c0.1,0 0.1,0.1 0,0.1l-0.6,0.4l1,-0.3l0.8,-0.2l-1.3,0.7l-1.3,0.4a1,1 0 0 0 -0.6,0.5l-0.3,0.5l0.3,0l0.4,-0.2a1.4,1.4 0 0 1 0.9,-0.6l1.5,-0.5l0.5,0a0.1,0.1 0 0 1 0.1,0.2c-0.2,0.2 -0.6,0.3 -0.8,0.5l0.2,0l-3.2,0.9l-3.8,1.6a5.2,5.2 0 0 1 -2.3,1.2a6.6,6.6 0 0 1 -1.7,1.1l-0.8,0.2a1.5,1.5 0 0 1 -1.3,0.9l-0.3,0.5a3.7,3.7 0 0 1 -1.2,1.1l-0.1,0l0,-0.1l-0.2,0.2l-0.2,0.2l-1,0.2l-0.5,0l-0.4,0.5c-0.1,0.1 -0.1,0.2 0,0.2l0.1,0c-0.6,0.6 -1,1.4 -1.8,1.7l-1.3,1.5c-0.6,1.2 -1.8,1.6 -2.6,2.6s-1.4,3.9 -3.9,4.3l-0.2,-0.3l-0.2,0.5a2.7,2.7 0 0 1 -0.4,0.8a16.9,16.9 0 0 0 -1.2,2.1a0.8,0.8 0 0 0 -0.1,0.5a1.4,1.4 0 0 1 -0.2,0.8l-0.5,1.1l0.2,0c0.3,0 0.3,0.3 0.4,0.6l0.8,-1.1a2.2,2.2 0 0 1 0.6,-0.7a2,2 0 0 0 0.9,-0.9l0.3,-0.3l0.4,-0.4l0.6,-1.1l0.2,0c0.1,0.1 0.1,0.1 0.2,0l0.2,-0.4l0.5,0l0,0.8l0.5,-0.5a0.5,0.5 0 0 0 0,-0.5a0.4,0.4 0 0 1 0.1,-0.3a1.5,1.5 0 0 0 0.3,-0.5a1.3,1.3 0 0 1 0.8,-0.9l0.3,-0.2l0.3,-0.3a2.4,2.4 0 0 0 0.8,-1l-0.2,-0.3c0,-0.1 0.1,-0.3 0.2,-0.4l0.5,0l0.6,-0.8l0.6,-0.3l0.2,0a48.8,48.8 0 0 0 -5.5,7.2l-0.1,0l0.1,0a48.4,48.4 0 0 0 -5.3,11.2l-0.5,0l-0.5,-0.4c-0.2,-0.2 -0.1,-0.7 -0.4,-0.9l0.1,0c0.3,-0.5 -0.1,-1.2 0.3,-1.7s0.1,-1.4 -0.9,-1.2s-1.5,0.5 -1.3,1.5s-1,1.8 -1.1,2.9s-0.5,0.5 -0.3,0.9l0,3.9c0.1,0.8 -0.5,1.8 0.8,2.1l1.3,0.9c0.1,0.5 -0.5,1.6 0.9,1.3a49.2,49.2 0 0 0 -0.3,5c0,1.1 0.1,2.2 0.1,3.3l0,-0.4c-0.1,-0.4 -0.1,-0.8 -0.2,-1.3l-0.3,0.3l0,-0.2l-0.5,0c0,0.5 -0.1,0.8 -0.4,0.9a0.9,0.9 0 0 0 -0.1,0.5c0,0.1 0.1,0.3 0.2,0.2s0.4,0.2 0.7,0.4s-0.2,0.3 -0.4,0.2s-0.2,0.1 -0.2,0.3l0,0.3l0.5,1.5c0,0.3 -0.1,0.6 -0.1,0.9a1.7,1.7 0 0 0 0.2,0.8l-0.3,0l0,-0.3l-0.7,-0.2l0,-0.6a1.5,1.5 0 0 0 0,-0.5a14.6,14.6 0 0 1 -0.3,-1.8a16.6,16.6 0 0 1 -0.2,-3.5a0.9,0.9 0 0 1 0.1,-0.5l0,0.2a2.9,2.9 0 0 1 0.1,0.5a0.8,0.8 0 0 0 0.1,0.4c0.1,0.2 0.2,0.4 0.4,0.4s0.1,-0.1 0.1,-0.2a2.1,2.1 0 0 0 -0.1,-0.5a4.2,4.2 0 0 1 -0.3,-1.3a1.5,1.5 0 0 0 -0.3,-0.7a1.6,1.6 0 0 1 -0.2,-0.9l0,-0.8c0,-0.3 0.1,-0.6 0.1,-0.9a0.5,0.5 0 0 0 -0.1,-0.4l-0.1,0c-0.8,0.4 -0.7,0.2 -1,1.6l0,1.8c0,0.7 -0.1,1.4 0,2.1a10.8,10.8 0 0 0 0.2,2.3a1.8,1.8 0 0 1 0,0.5a3.1,3.1 0 0 0 0.1,0.9a5.9,5.9 0 0 1 0.1,1.3a3.9,3.9 0 0 0 0.2,1.7a1.2,1.2 0 0 1 0,0.4a2.1,2.1 0 0 0 0.1,0.8a4.9,4.9 0 0 1 0.2,0.9a14,14 0 0 0 0.5,2.2a5,5 0 0 1 0.2,1a1.7,1.7 0 0 0 0.3,0.7a2.9,2.9 0 0 1 0.5,1.2a8.5,8.5 0 0 0 0.3,1l0.4,1.4a5.4,5.4 0 0 0 0.6,1.5a8.5,8.5 0 0 1 0.8,2.1l0.2,0.5a2.1,2.1 0 0 1 0.5,1a2.1,2.1 0 0 0 0.4,0.8a1,1 0 0 1 0.2,0.5c0.1,0.3 0.2,0.4 0.4,0.3l0.1,0l0,0.9l0.5,1l0.5,1l1.1,1.2l0.4,0.4c0.3,0.3 0.7,0.5 0.9,1l0.4,0.3a0.7,0.7 0 0 1 0.3,0.5l0.2,0.7a3.3,3.3 0 0 0 0.6,0.9l0.4,0.2l0.3,0a0.2,0.2 0 0 1 0.1,0.3a2.5,2.5 0 0 0 0,0.5a0.9,0.9 0 0 0 0.4,0.5l0.2,0c0.4,-0.1 0.8,0.2 1.2,0.7l0.1,0c0,-0.1 0.1,-0.1 0,-0.2l0,-0.2c0,-0.1 0.1,-0.2 0.2,-0.1a0.7,0.7 0 0 1 0.3,0.6l0,0.2a4.3,4.3 0 0 0 0.4,1.2c0.5,0.3 0.5,0.3 0.5,0.1s0,-0.2 0.2,-0.2l0.4,0l0.2,0.3l0.8,0.5c0.7,0.8 1.8,0.7 2.6,1.2l1.7,1.7l0.2,0a2.9,2.9 0 0 0 1.6,1.6a1.3,1.3 0 0 0 1,0.6c0,0.5 0.6,0.6 1.1,0.7a1.2,1.2 0 0 0 0.8,0.4l0.2,0a1.7,1.7 0 0 0 1.5,0.5l0.9,0.8l2.4,0.9l0,0.2c0.5,1.1 1.7,0.7 2.5,1l1.1,0.4l0.4,0c1.2,0.3 2.4,0.9 3.7,0.5a0.7,0.7 0 0 0 0,0.4c1.1,0.7 2.4,0 3.6,0.4a2.9,2.9 0 0 0 1.7,0.1l0.1,0l0.8,0.2l0.3,0l0.9,0.2l0.3,0a0.5,0.5 0 0 1 0.5,0a7.9,7.9 0 0 0 1.5,0.4l0.6,0a0.7,0.7 0 0 1 0.7,0l3.9,0a5,5 0 0 0 1.6,-0.1l1,0l0.5,-0.2l3.3,0l0.6,-0.2l0.5,-0.3l2.2,0l0,0.6l-1.3,0l-1.2,0.2c-0.4,0.1 -0.7,0 -1,0.1a2.4,2.4 0 0 1 -1,0.2l-1.3,0.3l-0.4,0a3.1,3.1 0 0 0 -1.5,0.1l-1.8,0a1.1,1.1 0 0 1 -0.9,0l-4.5,0a1.3,1.3 0 0 0 -1.1,0.3l-0.3,0l-0.3,-0.2l0,-0.3l-1.2,0a4.1,4.1 0 0 0 -1.3,-0.3l-2.5,0l-0.7,-0.2l-0.5,-0.2l-2.1,-0.4l-0.5,0l-0.5,-0.2l-2.1,-0.7l-1.4,-0.4l-2.2,0c-0.1,0 -0.1,0.1 -0.1,0.2l0.2,0c1.3,0.5 2.6,0.9 3.9,1.5l0.3,0l0.9,0.2l1.4,0.4l1.3,0l0.6,0.2l0.7,0.3l1.7,0.3l1.1,0.2l1.1,0.2l0.8,0l0.8,0.2l3.1,0l1,0.2l2.3,0l1,-0.2l2.2,0c0.4,0 0.6,-0.1 0.7,-0.3l1,0a1,1 0 0 0 0.8,-0.3c-0.1,0.1 0,0.1 0.1,0.2l0.4,0l0,-0.2c0,-0.1 0,-0.1 0.2,-0.2s0.6,-0.1 0.7,0.1l0.4,0l0.3,-0.2c0.2,0 0.2,0 0.2,0.1l0.7,0l0.5,-0.2l0.8,-0.4c0.1,0.3 0.4,0.4 1.3,0.2l1.3,-0.4l1.2,0c0.9,-0.1 2,0 2.7,-0.7l0.2,0l0.4,-0.3l1.1,-0.3a6.1,6.1 0 0 0 2,-0.8l0.4,-0.2l0.1,0l0.9,-0.6l0.4,-0.2l0.5,-0.2l0.4,0c0.4,-0.1 0.4,-0.1 0.5,-0.4s0,-0.1 -0.2,-0.1l-0.1,0l0.4,-0.5l0.2,0c0.3,-0.1 0.5,-0.2 0.7,-0.1l0.2,0a1.3,1.3 0 0 0 0.9,-0.9c0.3,-0.4 1.1,-0.2 1.3,-0.8l4.3,-3.1c1.1,-0.1 1.4,-1.1 2.2,-1.7s2.3,-1.1 3,-2.2l0.9,-0.4l0.1,0a1,1 0 0 0 1.2,-0.7l0,0.4c0.8,-0.4 1.8,0.3 2.6,-0.5s0,-2.7 1,-3.8l0.7,-0.5a12.1,12.1 0 0 0 1.5,-4.2l0.2,-0.2c0,-0.3 0,-0.7 0.4,-0.9a0.9,0.9 0 0 0 0.2,-1.2l-0.2,0a0.3,0.3 0 0 0 0,-0.3c0.7,0 0.8,-0.7 1.2,-1l0,-1.4a0.5,0.5 0 0 1 0,-0.2a3.8,3.8 0 0 0 0.1,-0.7zm-93.1,-43.9z" fill="#000000" id="path7"/>
    <path d="m26.4,9.3l-0.3,0.2l-0.4,0.3l0.5,-0.2l0.2,-0.3zm6.1,-2l0.1,0l0.3,-0.2l-0.4,0l0,0.2zm-2.6,1l-0.1,0.1l0.1,0l0,-0.1zm-1.5,1.4zm1.3,-0.2zm-6.3,3.1zm-14.2,13.6l-0.4,0.4l0.2,0a0.4,0.4 0 0 0 0.2,-0.4zm3,-3.5a2.1,2.1 0 0 0 0.3,-0.6a1.5,1.5 0 0 0 -0.5,0.5c-0.1,0.1 -0.1,0.2 0,0.2l0.2,-0.1zm-1.2,1.5l0,-0.2c-0.2,0 -0.5,0.3 -0.8,0.3l0,0.2c0.3,0.3 0.4,0.2 0.8,-0.3zm3,66.2zm59.9,-81.2l0.1,0l-0.5,-0.3l0.4,0.3zm-2.5,-1.4c0.5,-0.1 0.8,0.4 1.2,0.5l0.1,0l-0.3,-0.2l-1,-0.5l-1.1,-0.5l0.3,0.2l0.8,0.5zm-18.6,-4.7zm11.7,2l-0.1,0l-1.2,-0.2l0.5,0l0.8,0.2zm2,0.7l1.3,0.4a3.3,3.3 0 0 0 -1.3,-0.4zm-9,0a1,1 0 0 0 0.2,-0.5l-0.5,0l-0.3,0.3l0.4,0.3l0.2,-0.1zm9,1.6zm-16.6,-3.2zm2.9,0.7zm-4.3,-0.9zm13.8,2.1a0.5,0.5 0 0 0 0,0.1l0,-0.1zm44.8,52.3l-0.3,0l0,-0.4l0.3,0c0.1,0 0.2,-0.3 0.1,-0.4s-0.1,-0.7 -0.3,-0.8a0.3,0.3 0 0 1 -0.2,-0.3l0.2,-0.4a0.4,0.4 0 0 0 0,-0.2l-0.2,0l-0.2,-0.3c-0.1,0.3 -0.2,0.6 -0.4,0.7a0.5,0.5 0 0 0 0,0.2c0,0.1 0,0.2 -0.1,0.2l-0.1,0a1.1,1.1 0 0 1 -0.1,0.3a2.3,2.3 0 0 0 -0.4,0.9a0.4,0.4 0 0 0 0.1,0.4l0.1,0a1.7,1.7 0 0 0 -0.1,0.8l0,0.4a1.8,1.8 0 0 1 -0.1,0.5l-0.1,0l-0.4,0.7l0,0.6a1.5,1.5 0 0 1 -0.3,1.1l-0.2,0l-0.2,-0.2a0.9,0.9 0 0 1 -0.1,-0.8a6.5,6.5 0 0 0 0.1,-1.7c0,-0.1 -0.1,-0.2 -0.1,-0.2a0.5,0.5 0 0 0 -0.1,0.3l0,0.6c0,0.2 -0.1,0.6 -0.3,0.7s-0.1,0.2 -0.1,0.3l-0.2,0.6l0.3,0.5c-0.2,0.2 -0.4,0.1 -0.5,-0.1l0,1l0.3,0l0,0.4a4.2,4.2 0 0 0 -0.3,1.4a3.3,3.3 0 0 0 0,0.4a4,4 0 0 1 -0.2,1.3a2,2 0 0 0 0,0.6l-0.3,0.7a3.2,3.2 0 0 1 -0.3,0.7l-0.3,0.6l-0.9,2.7c0.3,0.9 -0.4,1.5 -0.8,2.1a2.7,2.7 0 0 1 -0.8,2.3l0,0.4c0,0.1 0.1,0.2 0.3,0.1l0.4,-0.3l0.2,-0.4l0.2,0c0.1,0.1 0.2,0.1 0.4,-0.1l0.2,0a0.5,0.5 0 0 1 0.1,0.6a2.9,2.9 0 0 0 -0.1,0.8c0,0.1 0,0.2 0.1,0.2l0.2,0c0.1,0.1 0.2,0 0.3,-0.3l0.2,-0.5l0.3,0c0.4,-0.1 0.4,-0.1 0.6,-0.6l0.5,-0.9l0.3,-0.6l0.4,-1a1.6,1.6 0 0 1 0.3,-1a0.6,0.6 0 0 0 0.1,-0.6c0,-0.2 0,-0.3 0.2,-0.6l0.3,-0.4l0.5,-1a4.7,4.7 0 0 1 0.2,-0.9a3,3 0 0 0 0.3,-1.3a3.8,3.8 0 0 1 0.3,-0.9l0,-0.5c-0.1,-0.2 -0.1,-0.2 0,-0.6s0.1,-0.2 0.2,-0.2a0.4,0.4 0 0 1 0.1,0.3l0.2,-0.5a2.3,2.3 0 0 0 0.2,-0.9l0,-0.3c0,-0.1 0,-0.3 -0.1,-0.3l0,0.4c-0.2,0 -0.3,0.2 -0.5,0.3a6.4,6.4 0 0 0 0.1,-0.8l0.4,-0.2a0.7,0.7 0 0 0 0.2,-0.6a1.4,1.4 0 0 1 0,-0.3a4.8,4.8 0 0 0 0.2,-1.4l0,-0.2l0.3,-1l0.1,0a0.3,0.3 0 0 0 0.1,-0.3l-0.1,0a0.9,0.9 0 0 1 0.2,-0.8a1.5,1.5 0 0 0 -0.9,-1zm-1.2,7.8zm-0.2,-9.9zm0,0zm-96.6,-25.5a0.3,0.3 0 0 0 0,-0.2l-0.2,-0.2l-0.2,0.2l-0.3,0.6c0,0.3 -0.3,0.6 -0.3,0.9l0,0.2l0.1,0l0.9,-1.5zm96.3,24.8l0.1,0a1.7,1.7 0 0 0 0.2,-1.2a0.5,0.5 0 0 1 0.2,-0.5l0.1,0l0,-0.2l-0.2,-0.2l-0.1,0c-0.1,0.1 -0.2,0.3 -0.3,0.3s-0.1,0.1 -0.1,0.3l0,0.3a2.2,2.2 0 0 0 0.1,1.2zm-92.2,34.5c-0.1,0 0,0.2 0,0.3l0.8,0.8l0.1,0c-0.2,-0.3 -0.3,-0.6 -0.2,-0.7a0.9,0.9 0 0 1 -0.5,-0.2l-0.2,-0.2zm0.8,0.3zm92.3,-35.7l0.1,0a2,2 0 0 0 0,-0.6c-0.3,0.1 -0.3,0.1 -0.3,0.6s0.1,0.1 0.2,0z" fill="#000000" id="path9"/>
    <path d="m106.7,62a0.6,0.6 0 0 0 0.1,-0.5c0,-0.1 -0.1,-0.2 -0.1,-0.1l-0.2,0l0,0.2c0,0.4 0.1,0.5 0.2,0.4zm0.1,-8.2l-0.1,0l0,0.6a1,1 0 0 0 0.1,-0.6zm-89.7,38.8l-0.2,0l0,0.2l0.2,0.2l0.2,0l0,-0.2l-0.2,-0.2zm86.6,-33.3c0,-0.1 0,-0.1 -0.1,-0.1l0.1,0.1zm-93.8,27.2l0.5,0.5l-0.4,-0.6l-0.1,0.1z" fill="#000000" id="path11"/>
    <circle cx="10.5" cy="87.1" fill="#000000" id="circle13" transform="rotate(-24.8 10.5 87.1)"/>
    <path d="m9.7,30.1l-0.1,0l0,0.2l0,-0.2l0.1,0zm83.2,-6.6l-0.2,-0.3l-0.1,0l0.3,0.3zm-14.7,77.1zm-72.3,-68.4zm-0.1,0.2a0.3,0.3 0 0 0 0.1,-0.2l0,0.2l-0.1,0zm1.9,-4.9zm53.8,-25.1zm42.8,58.2l0,0.1l0,-0.1zm-87.9,31.9l-0.1,0c0.1,0.1 0.2,0 0.1,-0.1l0,0.1zm0.2,0.7l0.1,0l-0.1,-0.1l0,0.1zm73.9,-71.3zm15.2,34.4zm-91.1,35.4zm92.1,-37zm-0.8,11.4zm-71.3,-66.1z" fill="#000000" id="path15"/>
   </g>
  </g>
  <text fill="#bfbfbf" font-family="Serif" font-size="24" id="svg_1" stroke="#000000" stroke-width="0" text-anchor="middle" transform="matrix(1.51195 0 0 1.9581 -38.7065 -33.7897)" x="59" xml:space="preserve" y="52.68">Y&amp;B</text>
 </g>
</svg>